<svg xmlns="http://www.w3.org/2000/svg" viewBox="0 0 36.277 32.736">
  <path fill="#464342" fill-rule="evenodd" d="M23.627 9.82H9.513l.337 3.274h13.442c-.197 2.868-.793 8.944-1.012 11.708l-7.55 2.125-.016.016-7.555-2.658-.518-6.28h3.704l.262 3.377 4.113 1.533h.01l4.107-1.473.423-5.074H6.476c-.062-.656-.856-9.18-.995-9.82h18.477c-.104 1.08-.209 2.19-.33 3.273ZM0 0l2.681 29.705 12.033 3.031 12.064-3.092L29.462 0Z"/>
  <circle cx="30.379" cy="20.78" r="5.117" fill="#fff" paint-order="markers stroke fill"/>
  <path fill="#ff2854" d="M36.277 21.034a6.008 6.008 0 1 1-6.008-6.008 6.007 6.007 0 0 1 6.008 6.008zm-5.163.008 2.3-2.302a.601.601 0 0 0-.85-.85l-2.3 2.302-2.302-2.301a.601.601 0 0 0-.85.85l2.303 2.301-2.302 2.301a.601.601 0 0 0 .85.85l2.3-2.302 2.302 2.302a.601.601 0 0 0 .85-.85z"/>
</svg>