<svg xmlns="http://www.w3.org/2000/svg" viewBox="0 0 569 123">
  <g fill="#fff">
    <path d="M8.708 61.26c0 20.802 12.089 38.779 29.619 47.298L13.258 39.872a52.354 52.354 0 0 0-4.55 21.388Zm88.032-2.652c0-6.495-2.333-10.993-4.334-14.494-2.664-4.329-5.161-7.995-5.161-12.324 0-4.831 3.664-9.328 8.825-9.328.233 0 .454.029.681.042-9.35-8.566-21.807-13.796-35.489-13.796-18.36 0-34.513 9.42-43.91 23.688 1.233.037 2.395.063 3.382.063 5.497 0 14.006-.667 14.006-.667 2.833-.167 3.167 3.994.337 4.329 0 0-2.847.335-6.015.501L48.2 93.547l11.501-34.493-8.188-22.434c-2.83-.166-5.511-.501-5.511-.501-2.832-.166-2.5-4.496.332-4.329 0 0 8.679.667 13.843.667 5.496 0 14.006-.667 14.006-.667 2.835-.167 3.168 3.994.337 4.329 0 0-2.853.335-6.015.501l18.992 56.494 5.242-17.517c2.272-7.269 4.001-12.49 4.001-16.989Z"/>
    <path d="m62.184 65.857-15.768 45.819a52.552 52.552 0 0 0 14.846 2.141c6.12 0 11.989-1.058 17.452-2.979a4.615 4.615 0 0 1-.374-.724L62.184 65.857Zm45.192-29.811c.226 1.674.354 3.471.354 5.404 0 5.333-.996 11.328-3.996 18.824l-16.053 46.413c15.624-9.111 26.133-26.038 26.133-45.426.001-9.137-2.333-17.729-6.438-25.215Z"/>
    <path d="M61.262 0C27.483 0 0 27.481 0 61.26c0 33.783 27.483 61.263 61.262 61.263 33.778 0 61.265-27.48 61.265-61.263C122.526 27.481 95.04 0 61.262 0Zm0 119.715c-32.23 0-58.453-26.223-58.453-58.455 0-32.23 26.222-58.451 58.453-58.451 32.229 0 58.45 26.221 58.45 58.451 0 32.232-26.221 58.455-58.45 58.455ZM206.52 102.84c-.8 0-2.6-.08-5.4-.24-2.72-.16-5.88-.32-9.48-.48-3.52-.08-6.88-.12-10.08-.12-1.6 0-2.96.04-4.08.12-1.04.08-2.2.16-3.48.24-1.2.16-2.88.24-5.04.24-1.04 0-1.88-.12-2.52-.36-.64-.24-.96-.64-.96-1.2 0-.64.32-1.04.96-1.2.64-.24 1.64-.48 3-.72 3.04-.56 5.12-1.48 6.24-2.76 1.2-1.28 1.8-3.36 1.8-6.24v-54c0-2.88-.6-4.92-1.8-6.12-1.12-1.2-3.2-2.08-6.24-2.64-1.36-.24-2.36-.48-3-.72-.64-.32-.96-.8-.96-1.44 0-.56.32-.96.96-1.2.64-.24 1.48-.36 2.52-.36 2.08 0 3.72.04 4.92.12 1.28 0 2.52.04 3.72.12h4.68c1.28 0 2.88-.04 4.8-.12 2-.08 4.04-.2 6.12-.36 2.16-.16 4.08-.28 5.76-.36 1.76-.08 3.04-.12 3.84-.12 8.16 0 15.12 1 20.88 3 5.76 1.92 10.44 4.64 14.04 8.16 3.6 3.44 6.24 7.48 7.92 12.12 1.76 4.56 2.64 9.48 2.64 14.76 0 5.76-1.08 11.16-3.24 16.2a43.572 43.572 0 0 1-9 13.44c-3.84 3.84-8.28 6.84-13.32 9-5.04 2.16-10.44 3.24-16.2 3.24Zm-1.44-4.2c6.24 0 11.76-1.52 16.56-4.56 4.8-3.04 8.52-7.24 11.16-12.6 2.72-5.36 4.08-11.52 4.08-18.48 0-5.76-.96-10.88-2.88-15.36-1.92-4.56-4.48-8.36-7.68-11.4-3.2-3.12-6.8-5.48-10.8-7.08-4-1.68-8.04-2.52-12.12-2.52-3.44 0-6.4.12-8.88.36-2.4.16-4.24.76-5.52 1.8-1.28 1.04-1.92 2.76-1.92 5.16v53.52c0 3.2.88 5.6 2.64 7.2 1.76 1.6 4 2.68 6.72 3.24 2.8.48 5.68.72 8.64.72Zm72.949 5.16c-4.4 0-8.24-1.08-11.52-3.24-3.28-2.16-5.84-5.2-7.68-9.12-1.84-4-2.76-8.6-2.76-13.8 0-4.64 1.04-8.84 3.12-12.6 2.16-3.84 5-6.92 8.52-9.24 3.52-2.32 7.36-3.48 11.52-3.48 3.2 0 6.04.64 8.52 1.92 2.48 1.28 4.4 3.08 5.76 5.4 1.44 2.24 2.16 4.84 2.16 7.8 0 2.48-1.2 3.72-3.6 3.72h-25.32c-1.12 0-1.92.32-2.4.96-.4.56-.6 1.72-.6 3.48 0 3.84.84 7.36 2.52 10.56 1.68 3.12 3.92 5.64 6.72 7.56 2.8 1.84 5.88 2.76 9.24 2.76 2.4 0 4.56-.44 6.48-1.32 2-.96 3.76-2.32 5.28-4.08.32-.4.56-.64.72-.72.16-.16.36-.24.6-.24.64 0 .96.4.96 1.2 0 1.52-.72 3.2-2.16 5.04-1.2 1.52-2.64 2.84-4.32 3.96a19.228 19.228 0 0 1-5.52 2.52c-2 .64-4.08.96-6.24.96Zm-11.04-36.36h10.92c1.92 0 3.56-.04 4.92-.12 1.36-.08 2.68-.24 3.96-.48.4-.08.64-.32.72-.72.16-.48.24-1.12.24-1.92 0-2.32-1.04-4.28-3.12-5.88-2-1.68-4.4-2.52-7.2-2.52-1.84 0-3.68.56-5.52 1.68-1.84 1.04-3.36 2.36-4.56 3.96-1.2 1.6-1.8 3.2-1.8 4.8 0 .8.48 1.2 1.44 1.2Zm54.918 36.24c-3.92 0-7-1.2-9.24-3.6-2.16-2.4-3.24-5.96-3.24-10.68V61.56c0-.64-.24-1.08-.72-1.32-.48-.32-1.52-.48-3.12-.48h-.72c-.4 0-.76-.24-1.08-.72-.24-.56-.36-1.12-.36-1.68 0-.16.12-.4.36-.72.24-.32.4-.52.48-.6 1.6-1.12 3.04-2.24 4.32-3.36 1.36-1.12 2.56-2.2 3.6-3.24 1.12-1.12 2.04-2.12 2.76-3l.96-.96c.32-.32.68-.48 1.08-.48s.76.08 1.08.24c.4.16.56.52.48 1.08l-.6 5.4c-.08.88.12 1.48.6 1.8.48.32 1.24.48 2.28.48h13.68c.32 0 .6.28.84.84.24.48.36 1.08.36 1.8s-.12 1.44-.36 2.16c-.24.64-.52.96-.84.96h-11.88c-2 0-3.32.16-3.96.48-.56.32-.84 1.28-.84 2.88v23.64c0 3.2.68 5.72 2.04 7.56 1.36 1.84 3.32 2.76 5.88 2.76 2.32 0 4.12-.16 5.4-.48 1.28-.4 2.44-.96 3.48-1.68.16-.16.32-.24.48-.24.32 0 .52.2.6.6.16.32.24.68.24 1.08s-.68 1.2-2.04 2.4c-1.28 1.2-3 2.32-5.16 3.36-2.08 1.04-4.36 1.56-6.84 1.56Zm40.614.12c-4.4 0-8.24-1.08-11.52-3.24-3.28-2.16-5.84-5.2-7.68-9.12-1.84-4-2.76-8.6-2.76-13.8 0-4.64 1.04-8.84 3.12-12.6 2.16-3.84 5-6.92 8.52-9.24 3.52-2.32 7.36-3.48 11.52-3.48 3.2 0 6.04.64 8.52 1.92 2.48 1.28 4.4 3.08 5.76 5.4 1.44 2.24 2.16 4.84 2.16 7.8 0 2.48-1.2 3.72-3.6 3.72h-25.32c-1.12 0-1.92.32-2.4.96-.4.56-.6 1.72-.6 3.48 0 3.84.84 7.36 2.52 10.56 1.68 3.12 3.92 5.64 6.72 7.56 2.8 1.84 5.88 2.76 9.24 2.76 2.4 0 4.56-.44 6.48-1.32 2-.96 3.76-2.32 5.28-4.08.32-.4.56-.64.72-.72.16-.16.36-.24.6-.24.64 0 .96.4.96 1.2 0 1.52-.72 3.2-2.16 5.04-1.2 1.52-2.64 2.84-4.32 3.96a19.228 19.228 0 0 1-5.52 2.52c-2 .64-4.08.96-6.24.96Zm-11.04-36.36h10.92c1.92 0 3.56-.04 4.92-.12 1.36-.08 2.68-.24 3.96-.48.4-.08.64-.32.72-.72.16-.48.24-1.12.24-1.92 0-2.32-1.04-4.28-3.12-5.88-2-1.68-4.4-2.52-7.2-2.52-1.84 0-3.68.56-5.52 1.68-1.84 1.04-3.36 2.36-4.56 3.96-1.2 1.6-1.8 3.2-1.8 4.8 0 .8.48 1.2 1.44 1.2Zm56.626 36.36c-4 0-7.64-1-10.92-3-3.2-2.08-5.76-4.88-7.68-8.4-1.84-3.6-2.76-7.6-2.76-12 0-5.2 1.12-9.92 3.36-14.16 2.32-4.24 5.4-7.6 9.24-10.08 3.84-2.56 8.08-3.84 12.72-3.84 5.2 0 9.76 1.4 13.68 4.2.96.72 1.44 1.48 1.44 2.28 0 .64-.28 1.36-.84 2.16-.56.8-1.24 1.48-2.04 2.04-.8.48-1.56.72-2.28.72-.4 0-.8-.12-1.2-.36-.4-.32-.84-.64-1.32-.96-1.76-1.36-3.72-2.64-5.88-3.84-2.16-1.2-3.96-1.8-5.4-1.8-3.92 0-7.12 1.84-9.6 5.52-2.4 3.6-3.6 8.36-3.6 14.28 0 3.76.8 7.16 2.4 10.2 1.68 3.04 3.88 5.44 6.6 7.2 2.8 1.76 5.88 2.64 9.24 2.64 2.32 0 4.32-.36 6-1.08 1.68-.8 3.48-2.16 5.4-4.08.16-.16.36-.28.6-.36.24-.16.44-.24.6-.24.88 0 1.32.56 1.32 1.68 0 .48-.16 1.04-.48 1.68-.24.56-.68 1.24-1.32 2.04-1.28 1.6-2.8 3-4.56 4.2-1.76 1.12-3.72 1.96-5.88 2.52-2.08.56-4.36.84-6.84.84Zm45.987-.12c-3.92 0-7-1.2-9.24-3.6-2.16-2.4-3.24-5.96-3.24-10.68V61.56c0-.64-.24-1.08-.72-1.32-.48-.32-1.52-.48-3.12-.48h-.72c-.4 0-.76-.24-1.08-.72-.24-.56-.36-1.12-.36-1.68 0-.16.12-.4.36-.72.24-.32.4-.52.48-.6 1.6-1.12 3.04-2.24 4.32-3.36 1.36-1.12 2.56-2.2 3.6-3.24 1.12-1.12 2.04-2.12 2.76-3l.96-.96c.32-.32.68-.48 1.08-.48s.76.08 1.08.24c.4.16.56.52.48 1.08l-.6 5.4c-.08.88.12 1.48.6 1.8.48.32 1.24.48 2.28.48h13.68c.32 0 .6.28.84.84.24.48.36 1.08.36 1.8s-.12 1.44-.36 2.16c-.24.64-.52.96-.84.96h-11.88c-2 0-3.32.16-3.96.48-.56.32-.84 1.28-.84 2.88v23.64c0 3.2.68 5.72 2.04 7.56 1.36 1.84 3.32 2.76 5.88 2.76 2.32 0 4.12-.16 5.4-.48 1.28-.4 2.44-.96 3.48-1.68.16-.16.32-.24.48-.24.32 0 .52.2.6.6.16.32.24.68.24 1.08s-.68 1.2-2.04 2.4c-1.28 1.2-3 2.32-5.16 3.36-2.08 1.04-4.36 1.56-6.84 1.56Zm43.134 0c-4.48 0-8.52-1.04-12.12-3.12-3.6-2.08-6.48-4.92-8.64-8.52-2.08-3.68-3.12-7.84-3.12-12.48 0-3.36.64-6.64 1.92-9.84 1.36-3.2 3.24-6.12 5.64-8.76 2.4-2.64 5.2-4.72 8.4-6.24 3.2-1.6 6.64-2.4 10.32-2.4 4.64 0 8.8 1.12 12.48 3.36 3.76 2.24 6.72 5.2 8.88 8.88 2.24 3.6 3.36 7.56 3.36 11.88 0 4.64-1.04 9.04-3.12 13.2-2 4.16-5 7.56-9 10.2-4 2.56-9 3.84-15 3.84Zm2.52-3.6c2.72 0 5.16-.52 7.32-1.56s3.84-2.72 5.04-5.04c.96-1.84 1.6-4.08 1.92-6.72.32-2.64.48-5.12.48-7.44 0-3.84-.72-7.52-2.16-11.04-1.36-3.6-3.32-6.52-5.88-8.76-2.48-2.32-5.44-3.48-8.88-3.48-2.16 0-4.12.36-5.88 1.08-1.68.64-3.24 1.88-4.68 3.72-1.6 2-2.64 4.44-3.12 7.32a52.47 52.47 0 0 0-.72 8.64c0 3.92.72 7.68 2.16 11.28 1.44 3.52 3.4 6.4 5.88 8.64s5.32 3.36 8.52 3.36Zm34.695 2.28c-.8 0-1.4-.12-1.8-.36-.4-.16-.6-.48-.6-.96 0-.64.24-1.04.72-1.2.48-.24 1.16-.48 2.04-.72 1.52-.4 2.64-.96 3.36-1.68.8-.8 1.2-1.76 1.2-2.88v-25.8c0-2.16-.32-4.04-.96-5.64-.64-1.6-1.96-2.6-3.96-3-.32-.08-.6-.28-.84-.6-.24-.32-.36-.64-.36-.96 0-.8.36-1.28 1.08-1.44 2.08-.64 4.24-1.56 6.48-2.76 2.32-1.28 4.12-2.32 5.399-3.12.481-.32.841-.52 1.081-.6.32-.16.56-.24.72-.24.4 0 .6.28.6.84 0 .24-.04.84-.12 1.8 0 .96-.04 2.08-.12 3.36 0 1.28-.04 2.56-.12 3.84 0 .16.08.24.24.24 1.28-1.6 2.68-3 4.2-4.2 1.6-1.2 3.2-2.16 4.8-2.88 1.68-.72 3.28-1.08 4.8-1.08 1.68 0 3.04.36 4.08 1.08 1.12.72 1.68 1.64 1.68 2.76 0 .8-.24 1.68-.72 2.64-.4.96-.96 1.8-1.68 2.52s-1.48 1.08-2.28 1.08c-.48 0-1-.08-1.56-.24-.56-.24-1.16-.52-1.8-.84l-1.92-.72c-.64-.24-1.28-.36-1.92-.36-1.92 0-3.8.68-5.64 2.04-1.76 1.36-2.64 4.04-2.64 8.04v24.24c0 1.04.56 1.92 1.68 2.64 1.12.64 2.68 1.28 4.68 1.92.88.24 1.56.48 2.04.72s.72.64.72 1.2c0 .88-.8 1.32-2.4 1.32-2.4 0-4.24-.12-5.52-.36-1.2-.16-2.84-.24-4.92-.24-1.36 0-2.48.04-3.36.12-.8.08-1.68.16-2.64.24-.88.16-2.12.24-3.72.24Z"/>
  </g>
</svg>
