<svg xmlns="http://www.w3.org/2000/svg" viewBox="0 0 73.44 73.44">
  <circle cx="36.72" cy="36.72" r="36.18" fill="#fdfdfd" paint-order="markers stroke fill"/>
  <path fill="#3858e9" d="M5.2 36.72c0 12.5 7.19 23.28 17.68 28.34L8 23.95a31.93 31.93 0 0 0-2.8 12.77zm52.83-1.6c0-3.85-1.47-6.65-2.67-8.64-1.6-2.67-3.06-4.8-3.06-7.45 0-2.93 2.27-5.6 5.33-5.6h.4A31.04 31.04 0 0 0 36.74 5.2 32.02 32.02 0 0 0 10.4 19.42h2c3.32 0 8.38-.4 8.38-.4 1.73-.13 1.86 2.4.26 2.67 0 0-1.73.26-3.59.26l11.44 34.06 6.92-20.62-4.92-13.44-3.33-.26c-1.73-.14-1.46-2.66.13-2.66 0 0 5.19.4 8.25.4 3.33 0 8.38-.4 8.38-.4 1.73-.14 1.87 2.39.27 2.66 0 0-1.73.26-3.6.26l11.45 33.93 3.21-10.5c1.33-4.4 2.4-7.46 2.4-10.25zm-20.76 4.4-9.44 27.4a32.7 32.7 0 0 0 8.91 1.33c3.72 0 7.18-.68 10.51-1.73-.13-.13-.13-.26-.27-.4zm27.14-17.83.27 3.21c0 3.21-.53 6.79-2.4 11.31l-9.57 27.8a31.59 31.59 0 0 0 15.7-27.27 33.68 33.68 0 0 0-4-15.03zM36.74 0A36.8 36.8 0 0 0 .02 36.72a36.8 36.8 0 0 0 36.72 36.72 36.8 36.8 0 0 0 36.72-36.72A36.8 36.8 0 0 0 36.74 0Zm0 71.84A35.06 35.06 0 0 1 1.75 36.72 35.04 35.04 0 0 1 36.74 1.73a35.04 35.04 0 0 1 34.99 34.99 35.06 35.06 0 0 1-34.99 35.12z"/>
</svg>